<?xml version="1.0"?>
<svg xmlns="http://www.w3.org/2000/svg" height="512px" viewBox="0 0 512 512" width="512px"><g><path d="m512 256c0 141.386719-114.613281 256-256 256s-256-114.613281-256-256 114.613281-256 256-256 256 114.613281 256 256zm0 0" fill="#ffa300" data-original="#FFA300"/><path d="m512 256c0-20.929688-2.53125-41.261719-7.265625-60.730469l-120.75-120.75-286.183594 336.867188 91.933594 91.933593c21.136719 5.652344 43.347656 8.679688 66.265625 8.679688 141.386719 0 256-114.613281 256-256zm0 0" fill="#fa5d0f" data-original="#FA5D0F"/><path d="m128.015625 74.519531h255.96875v134.578125h-255.96875zm0 0" fill="#80dd62" data-original="#80DD62"/><path d="m128.015625 74.519531v42.214844l42.210937-42.214844zm0 0" fill="#fff" data-original="#FFF"/><path d="m128.015625 209.097656h45.300781l-45.300781-45.300781zm0 0" fill="#39ffd9" data-original="#39FFD9"/><path d="m383.984375 74.519531h-47.910156l47.910156 47.910157zm0 0" fill="#fff" data-original="#FFF"/><path d="m383.984375 162.765625-46.332031 46.332031h46.332031zm0 0" fill="#fff" data-original="#FFF"/><path d="m256 86.382812c-25.488281 0-46.152344 24.8125-46.152344 55.425782 0 30.613281 20.664063 55.429687 46.152344 55.429687s46.152344-24.816406 46.152344-55.429687c0-30.613282-20.664063-55.425782-46.152344-55.425782zm0 94.601563c-18.015625 0-32.621094-17.539063-32.621094-39.175781 0-21.632813 14.605469-39.175782 32.621094-39.175782s32.621094 17.542969 32.621094 39.175782c0 21.636718-14.605469 39.175781-32.621094 39.175781zm0 0" fill="#fff" data-original="#FFF"/><path d="m186.769531 182.710938h255.96875v134.578124h-255.96875zm0 0" fill="#36b247" data-original="#36B247"/><g fill="#fff"><path d="m186.769531 182.710938v42.214843l42.210938-42.214843zm0 0" data-original="#FFF"/><path d="m186.769531 317.289062h45.300781l-45.300781-45.304687zm0 0" data-original="#FFF"/><path d="m442.738281 182.710938h-47.910156l47.910156 47.910156zm0 0" data-original="#FFF"/><path d="m442.738281 270.953125-46.335937 46.335937h46.335937zm0 0" data-original="#FFF"/><path d="m314.753906 194.570312c-25.488281 0-46.152344 24.816407-46.152344 55.429688s20.664063 55.429688 46.152344 55.429688c25.488282 0 46.152344-24.816407 46.152344-55.429688s-20.664062-55.429688-46.152344-55.429688zm0 94.605469c-18.015625 0-32.621094-17.539062-32.621094-39.175781s14.605469-39.175781 32.621094-39.175781 32.617188 17.539062 32.617188 39.175781-14.601563 39.175781-32.617188 39.175781zm0 0" data-original="#FFF"/><path d="m97.800781 100.613281h227.066407v310.773438h-227.066407zm0 0" data-original="#FFF"/></g><path d="m210.570312 100.613281h114.296876v310.773438h-114.296876zm0 0" fill="#e9edf5" data-original="#E9EDF5"/><path d="m118.726562 267.132812h185.214844v17.808594h-185.214844zm0 0" fill="#a7ddfa" data-original="#A7DDFA"/><path d="m118.726562 307.203125h185.214844v17.808594h-185.214844zm0 0" fill="#a7ddfa" data-original="#A7DDFA"/><path d="m118.726562 347.273438h185.214844v17.808593h-185.214844zm0 0" fill="#a7ddfa" data-original="#A7DDFA"/><path d="m118.726562 146.917969h185.214844v17.808593h-185.214844zm0 0" fill="#a7ddfa" data-original="#A7DDFA"/><path d="m118.726562 186.988281h185.214844v17.808594h-185.214844zm0 0" fill="#a7ddfa" data-original="#A7DDFA"/><path d="m118.726562 227.058594h185.214844v17.808594h-185.214844zm0 0" fill="#a7ddfa" data-original="#A7DDFA"/><path d="m210.570312 267.132812h93.371094v17.808594h-93.371094zm0 0" fill="#99d3f2" data-original="#99D3F2" class="active-path" style="fill:#99D3F2"/><path d="m210.570312 307.203125h93.371094v17.808594h-93.371094zm0 0" fill="#99d3f2" data-original="#99D3F2" class="active-path" style="fill:#99D3F2"/><path d="m210.570312 347.273438h93.371094v17.808593h-93.371094zm0 0" fill="#99d3f2" data-original="#99D3F2" class="active-path" style="fill:#99D3F2"/><path d="m210.570312 146.917969h93.371094v17.808593h-93.371094zm0 0" fill="#99d3f2" data-original="#99D3F2" class="active-path" style="fill:#99D3F2"/><path d="m210.570312 186.988281h93.371094v17.808594h-93.371094zm0 0" fill="#99d3f2" data-original="#99D3F2" class="active-path" style="fill:#99D3F2"/><path d="m210.570312 227.058594h93.371094v17.808594h-93.371094zm0 0" fill="#99d3f2" data-original="#99D3F2" class="active-path" style="fill:#99D3F2"/></g> </svg>
