<?xml version="1.0"?>
<svg xmlns="http://www.w3.org/2000/svg" height="512px" viewBox="0 0 64 64" width="512px"><g><g id="Contract"><path d="m54 3v58h-44v-53.538a4.249 4.249 0 0 1 4-4.462z" fill="#ffdaaa" data-original="#FFDAAA"/><path d="m50 3h4v58h-4z" fill="#ffc477" data-original="#FFC477"/><path d="m61 9h-7v-6h1a6 6 0 0 1 6 6z" fill="#c6c5ca" data-original="#C6C5CA"/><path d="m60.1 51.13-2.84 1.37.23 3.14-3.13.32-.86 3.03-3.05-.77-1.85 2.55-2.6-1.77-2.6 1.77-1.85-2.55-3.05.77-.86-3.03-3.13-.32.23-3.14-2.84-1.37 1.3-2.87-2.2-2.26 2.2-2.26-.34-.74-.96-2.13 2.84-1.37-.23-3.14 3.13-.32.86-3.03 3.05.77 1.85-2.55 2.6 1.77 2.6-1.77 1.85 2.55 3.05-.77.86 3.03 3.13.32-.23 3.14 2.84 1.37-.96 2.13-.34.74 2.2 2.26-2.2 2.26z" fill="#ff7956" data-original="#FF7956"/><path d="m60.1 51.13-2.84 1.37.23 3.14-3.13.32-.86 3.03-3.05-.77-1.85 2.55-2.6-1.77-2.6 1.77-1.85-2.55-3.05.77-.86-3.03-3.13-.32.12-1.66a22.4 22.4 0 0 0 15.37-4.98 22.586 22.586 0 0 0 7.49-12.57l-.23 3.07 2.84 1.37-.96 2.13-.34.74 2.2 2.26-2.2 2.26z" fill="#ff5023" data-original="#FF5023"/><circle cx="51" cy="51" fill="#ffde55" r="3" data-original="#FFDE55"/><path d="m53 61h-44a6.009 6.009 0 0 1 -6-6h42c0 2.11 1.9 3.97 4.14 5.03a9.132 9.132 0 0 0 3.86.97z" fill="#c6c5ca" data-original="#C6C5CA"/><circle cx="41" cy="41" fill="#ffde55" r="3" data-original="#FFDE55"/><path d="m13 13h2v2h-2z" data-original="#000000" class="active-path" style="fill:#000000"/><path d="m17 13h34v2h-34z" data-original="#000000" class="active-path" style="fill:#000000"/><path d="m13 17h2v2h-2z" data-original="#000000" class="active-path" style="fill:#000000"/><path d="m17 17h34v2h-34z" data-original="#000000" class="active-path" style="fill:#000000"/><path d="m13 21h2v2h-2z" data-original="#000000" class="active-path" style="fill:#000000"/><path d="m17 21h34v2h-34z" data-original="#000000" class="active-path" style="fill:#000000"/><path d="m13 25h2v2h-2z" data-original="#000000" class="active-path" style="fill:#000000"/><path d="m17 25h34v2h-34z" data-original="#000000" class="active-path" style="fill:#000000"/><path d="m51 47a4 4 0 1 0 4 4 4 4 0 0 0 -4-4zm0 6a2 2 0 1 1 2-2 2 2 0 0 1 -2 2z" data-original="#000000" class="active-path" style="fill:#000000"/><path d="m41 37a4 4 0 1 0 4 4 4 4 0 0 0 -4-4zm0 6a2 2 0 1 1 2-2 2 2 0 0 1 -2 2z" data-original="#000000" class="active-path" style="fill:#000000"/><path d="m61.716 45.3-1.724-1.771 1.019-2.248a1 1 0 0 0 -.476-1.314l-2.228-1.067.181-2.462a1 1 0 0 0 -.9-1.068l-2.455-.251-.133-.486v-24.633h6a1 1 0 0 0 1-1 7.008 7.008 0 0 0 -7-7h-41a5.006 5.006 0 0 0 -5 5v47h-6a1 1 0 0 0 -1 1 7.008 7.008 0 0 0 7 7h45a1 1 0 0 0 1-1v-3.633l.137-.481 2.455-.251a1 1 0 0 0 .9-1.068l-.181-2.462 2.228-1.074a1 1 0 0 0 .476-1.314l-1.019-2.248 1.72-1.769a1 1 0 0 0 0-1.4zm-1.816-37.3h-4.9v-4a5.008 5.008 0 0 1 4.9 4zm-48.9-1a3 3 0 0 1 3-3h39v28.1l-2.138.54-1.452-2a1 1 0 0 0 -1.372-.24l-2.038 1.39-2.038-1.39a1 1 0 0 0 -1.372.24l-1.452 2-2.393-.605a1 1 0 0 0 -1.207.7l-.675 2.377-2.455.251a1 1 0 0 0 -.9 1.068l.181 2.462-2.228 1.074a1 1 0 0 0 -.476 1.314l1.019 2.248-1.72 1.771a1 1 0 0 0 0 1.4l1.724 1.771-1.019 2.248a1 1 0 0 0 .476 1.314l2.229 1.074-.065.9h-22.629zm-2 53a5.008 5.008 0 0 1 -4.9-4h40.01a6.948 6.948 0 0 0 3 4zm41.694-.411.169-.233 2.137.544v.1a7.4 7.4 0 0 1 -2.306-.411zm7.2-10.917.9 1.981-1.961.946a1 1 0 0 0 -.563.974l.16 2.171-2.164.221a1 1 0 0 0 -.86.723l-.6 2.095-2.106-.533a1 1 0 0 0 -1.055.384l-.8 1.1c-1.612-.951-2.845-2.334-2.845-3.734a1 1 0 0 0 -1-1h-5.586l15.293-15.293-1.414-1.414-16 16 .707.707h-2.365l.1-1.428a1 1 0 0 0 -.563-.973l-1.961-.946.9-1.981a1 1 0 0 0 -.194-1.11l-1.517-1.562 1.521-1.562a1 1 0 0 0 .194-1.11l-.9-1.981 1.961-.946a1 1 0 0 0 .563-.974l-.16-2.171 2.164-.221a1 1 0 0 0 .86-.722l.6-2.1 2.108.533a1 1 0 0 0 1.054-.383l1.28-1.764 1.8 1.224a1 1 0 0 0 1.125 0l1.8-1.224 1.28 1.764a1 1 0 0 0 1.054.383l2.108-.533.6 2.1a1 1 0 0 0 .86.722l2.164.221-.16 2.171a1 1 0 0 0 .563.974l1.961.946-.9 1.981a1 1 0 0 0 .194 1.11l1.506 1.562-1.521 1.562a1 1 0 0 0 -.19 1.11z" data-original="#000000" class="active-path" style="fill:#000000"/><path d="m28 7h8v2h-8z" data-original="#000000" class="active-path" style="fill:#000000"/></g></g> </svg>
