<?xml version="1.0"?>
<svg xmlns="http://www.w3.org/2000/svg" xmlns:xlink="http://www.w3.org/1999/xlink" version="1.1" id="Capa_1" x="0px" y="0px" viewBox="0 0 511.999 511.999" style="enable-background:new 0 0 511.999 511.999;" xml:space="preserve" width="512px" height="512px" class=""><g><path style="fill:#C6A07D;" d="M491.018,274.778V64.36c0-2.751-2.25-5.001-5-5.001H177.914c-2.75,0-5.001,2.25-5.001,5.001v210.418  H491.018z" data-original="#C6A07D" class=""/><path style="fill:#FFFFFF;" d="M471.604,274.778V84.42c0-2.792-2.284-5.077-5.076-5.077H197.404c-2.792,0-5.076,2.284-5.076,5.077  v190.358H471.604z" data-original="#FFFFFF"/><path style="opacity:0.1;enable-background:new    ;" d="M213.229,274.778V84.42c0-2.792,2.284-5.077,5.075-5.077h-20.9  c-2.792,0-5.076,2.284-5.076,5.077v190.358H213.229z" data-original="#000000"/><path style="fill:#FCDB67;" d="M363.251,46.295V24.86c0-2.75-2.25-5.001-5-5.001h-52.573c-2.75,0-5,2.25-5,5.001v21.435H363.251z" data-original="#FCDB67"/><path style="opacity:0.1;enable-background:new    ;" d="M321.421,46.295V24.86c0-2.75,2.25-5.001,5-5.001h-20.742  c-2.75,0-5,2.25-5,5.001v21.435H321.421z" data-original="#000000"/><path style="fill:#89C947;" d="M244.89,170.469v-48.316c0-4.131-3.349-7.48-7.48-7.48s-7.481,3.349-7.481,7.48v48.316H244.89z" data-original="#89C947"/><path style="fill:#48C1E1;" d="M267.847,170.469v-27.548c0-4.131-3.349-7.48-7.48-7.48s-7.48,3.349-7.48,7.48v27.548H267.847z" data-original="#48C1E1" class=""/><path style="fill:#89C947;" d="M290.805,170.469v-48.316c0-4.131-3.349-7.48-7.48-7.48s-7.48,3.349-7.48,7.48v48.316H290.805z" data-original="#89C947"/><path style="fill:#48C1E1;" d="M313.764,170.469V154.25c0-4.131-3.35-7.481-7.481-7.481c-4.131,0-7.48,3.35-7.48,7.481v16.219  H313.764z" data-original="#48C1E1" class=""/><path style="fill:#89C947;" d="M336.722,170.469v-25.779c0-4.131-3.349-7.48-7.481-7.48c-4.131,0-7.48,3.349-7.48,7.48v25.779  L336.722,170.469L336.722,170.469z" data-original="#89C947"/><path style="fill:#D5E962;" d="M342.796,184.386H220.82c-4.131,0-7.481-3.349-7.481-7.48c0-4.132,3.35-7.481,7.481-7.481h121.976  c4.131,0,7.48,3.349,7.48,7.481C350.277,181.036,346.928,184.386,342.796,184.386z" data-original="#D5E962"/><g>
	<path style="fill:#C5CCD3;" d="M437.362,127.716h-63.237c-4.131,0-7.48-3.349-7.48-7.48c0-4.131,3.349-7.48,7.48-7.48h63.237   c4.131,0,7.48,3.349,7.48,7.48S441.493,127.716,437.362,127.716z" data-original="#C5CCD3"/>
	<path style="fill:#C5CCD3;" d="M437.362,149.756h-63.237c-4.131,0-7.48-3.35-7.48-7.481s3.349-7.48,7.48-7.48h63.237   c4.131,0,7.48,3.349,7.48,7.48S441.493,149.756,437.362,149.756z" data-original="#C5CCD3"/>
	<path style="fill:#C5CCD3;" d="M437.362,171.795h-39.285c-4.131,0-7.48-3.35-7.48-7.481s3.349-7.481,7.48-7.481h39.285   c4.131,0,7.48,3.349,7.48,7.481C444.842,168.445,441.493,171.795,437.362,171.795z" data-original="#C5CCD3"/>
</g><path style="fill:#FFC502;" d="M269.261,88.377c-2.75,0-5-2.25-5-5V49.996c0-2.751,2.25-5.001,5-5.001H394.67c2.75,0,5,2.25,5,5.001  v33.381c0,2.75-2.25,5-5,5H269.261z" data-original="#FFC502"/><g style="opacity:0.1;">
	<path d="M285.002,83.377V49.996c0-2.751,2.25-5.001,5.001-5.001H269.26c-2.75,0-5,2.25-5,5.001v33.381c0,2.75,2.25,5,5,5h20.743   C287.252,88.377,285.002,86.127,285.002,83.377z" data-original="#000000"/>
</g><g>
	<path style="fill:#A2DFF9;" d="M229.563,305.12v76.61c0,10.383,8.417,18.801,18.8,18.801s18.801-8.417,18.801-18.801v-76.61   H229.563z" data-original="#A2DFF9"/>
	<rect x="229.56" y="228.967" style="fill:#A2DFF9;" width="37.601" height="45.815" data-original="#A2DFF9"/>
</g><path style="fill:#FB8276;" d="M229.563,305.12v76.61c0,10.383,8.417,18.801,18.8,18.801s18.801-8.417,18.801-18.801v-76.61H229.563  z" data-original="#FB8276"/><g>
	<path style="fill:#48C1E1;" d="M217.811,236.444h4.271v38.334h14.962v-38.334h22.639v38.334h14.961v-38.334h4.269   c4.132,0,7.481-3.349,7.481-7.481c0-4.131-3.349-7.48-7.481-7.48h-61.102c-4.132,0-7.481,3.349-7.481,7.48   C210.331,233.095,213.68,236.444,217.811,236.444z" data-original="#48C1E1" class=""/>
	<path style="fill:#48C1E1;" d="M259.683,305.12v76.61c0,6.242-5.078,11.32-11.32,11.32c-6.241,0-11.319-5.078-11.319-11.32v-76.61   h-14.962v76.61c0,14.492,11.789,26.282,26.28,26.282c14.492,0,26.282-11.79,26.282-26.282v-76.61H259.683z" data-original="#48C1E1" class=""/>
</g><g>
	<rect x="314.16" y="228.967" style="fill:#A2DFF9;" width="37.602" height="45.815" data-original="#A2DFF9"/>
	<path style="fill:#A2DFF9;" d="M314.164,305.12v76.61c0,10.383,8.418,18.801,18.8,18.801c10.383,0,18.801-8.417,18.801-18.801   v-76.61H314.164z" data-original="#A2DFF9"/>
</g><path style="fill:#89C947;" d="M314.164,305.12v76.61c0,10.383,8.418,18.801,18.8,18.801c10.383,0,18.801-8.417,18.801-18.801  v-76.61H314.164z" data-original="#89C947"/><g>
	<path style="fill:#48C1E1;" d="M302.415,236.444h4.269v38.334h14.961v-38.334h22.64v38.334h14.961v-38.334h4.271   c4.131,0,7.48-3.349,7.48-7.481c0-4.131-3.349-7.48-7.48-7.48h-61.102c-4.131,0-7.481,3.349-7.481,7.48   C294.934,233.095,298.283,236.444,302.415,236.444z" data-original="#48C1E1" class=""/>
	<path style="fill:#48C1E1;" d="M344.285,305.12v76.61c0,6.242-5.079,11.32-11.321,11.32s-11.319-5.078-11.319-11.32v-76.61h-14.961   v76.61c0,14.492,11.79,26.282,26.281,26.282c14.492,0,26.282-11.79,26.282-26.282v-76.61H344.285z" data-original="#48C1E1" class=""/>
</g><g>
	<rect x="398.77" y="228.967" style="fill:#A2DFF9;" width="37.6" height="45.815" data-original="#A2DFF9"/>
	<path style="fill:#A2DFF9;" d="M398.767,305.12v76.61c0,10.383,8.417,18.801,18.8,18.801c10.382,0,18.8-8.417,18.8-18.801v-76.61   H398.767z" data-original="#A2DFF9"/>
</g><path style="fill:#FFC502;" d="M398.767,305.12v76.61c0,10.383,8.417,18.801,18.8,18.801c10.382,0,18.8-8.417,18.8-18.801v-76.61  H398.767z" data-original="#FFC502"/><g>
	<path style="fill:#48C1E1;" d="M428.887,305.12v76.61c0,6.242-5.078,11.32-11.319,11.32s-11.32-5.078-11.32-11.32v-76.61h-14.961   v76.61c0,14.492,11.79,26.282,26.281,26.282s26.281-11.79,26.281-26.282v-76.61H428.887z" data-original="#48C1E1" class=""/>
	<path style="fill:#48C1E1;" d="M387.016,236.444h4.27v38.334h14.961v-38.334h22.639v38.334h14.961v-38.334h4.27   c4.131,0,7.48-3.349,7.48-7.481c0-4.131-3.349-7.48-7.48-7.48h-61.102c-4.131,0-7.48,3.349-7.48,7.48   C379.536,233.095,382.885,236.444,387.016,236.444z" data-original="#48C1E1" class=""/>
</g><rect x="164.9" y="284.157" style="fill:#C6A07D;" width="336.12" height="22.362" data-original="#C6A07D" class=""/><rect x="164.9" y="284.157" style="opacity:0.1;enable-background:new    ;" width="26.925" height="22.362" data-original="#000000"/><path style="fill:#775436" d="M499.519,273.187H166.411c-6.882,0-12.482,5.599-12.482,12.482v39.154  c5.47,3.894,10.482,8.357,14.961,13.292v-49.966h328.148v128.406H191.734c-0.896,5.123-2.214,10.125-3.928,14.962h311.712  c6.882,0,12.481-5.599,12.481-12.482V285.669C512,278.786,506.401,273.187,499.519,273.187z" data-original="#775436" class="active-path" data-old_color="#775436"/><path style="fill:#A2DFF9;" d="M125.728,311.25c-2.513-0.715-4.269-3.04-4.269-5.652V171.465H79.158v134.132  c0,2.612-1.756,4.938-4.269,5.652C35.2,322.53,7.481,359.244,7.481,400.531c0,37.128,22.079,70.612,56.248,85.307  c0.733,0.316,1.523,0.479,2.321,0.479h68.518c0.799,0,1.589-0.163,2.321-0.479c34.169-14.695,56.247-48.179,56.247-85.307  C193.136,359.244,165.417,322.53,125.728,311.25z" data-original="#A2DFF9"/><path style="fill:#FFC502;" d="M7.481,400.531c0,37.128,22.079,70.612,56.248,85.307c0.733,0.316,1.523,0.479,2.321,0.479h68.518  c0.799,0,1.589-0.163,2.321-0.479c34.169-14.695,56.247-48.179,56.247-85.307c0-18.361-5.493-35.811-15.073-50.531H22.555  C12.975,364.719,7.481,382.169,7.481,400.531z" data-original="#FFC502"/><path style="fill:#FFFFFF;" d="M189.744,375.854c-2.568-9.218-6.527-17.933-11.682-25.854H22.555  c-5.155,7.921-9.113,16.636-11.683,25.854H189.744z" data-original="#FFFFFF"/><g style="opacity:0.1;">
	<path d="M28.343,411.194c0-41.287,27.719-78.001,67.407-89.281c2.514-0.715,4.27-3.04,4.27-5.652V171.465H79.158v134.132   c0,2.612-1.756,4.938-4.269,5.652C35.2,322.53,7.481,359.244,7.481,400.531c0,37.128,22.079,70.612,56.248,85.307   c0.733,0.316,1.523,0.479,2.321,0.479h0.614C42.899,469.083,28.343,441.34,28.343,411.194z" data-original="#000000"/>
</g><g>
	<path style="fill:#48C1E1;" d="M128.939,304.393v-131.81h5.145c2.749,0,4.999-2.251,4.999-5.001v-11.179   c0-2.75-2.25-5.001-4.999-5.001H66.533c-2.751,0-5.001,2.251-5.001,5.001v11.179c0,2.75,2.25,5.001,5.001,5.001h5.144v131.811   C29.413,316.966,0,356.322,0,400.531c0,40.119,23.854,76.302,60.764,92.175c1.679,0.725,3.457,1.093,5.286,1.093h68.518   c1.831,0,3.61-0.369,5.277-1.089c36.918-15.876,60.773-52.06,60.773-92.179C200.617,356.322,171.202,316.965,128.939,304.393z    M134.231,478.837H66.386c-31.25-13.579-51.424-44.28-51.424-78.306c0-37.96,25.484-71.715,61.974-82.085   c5.713-1.626,9.703-6.909,9.703-12.848V178.947h27.34v126.651c0,5.939,3.99,11.222,9.705,12.848   c36.488,10.37,61.972,44.125,61.972,82.085C185.655,434.553,165.487,465.25,134.231,478.837z" data-original="#48C1E1" class=""/>
	<path style="fill:#48C1E1;" d="M79.158,291.675h11.751c4.131,0,7.48-3.35,7.48-7.481c0-4.131-3.349-7.48-7.48-7.48H79.158V291.675z   " data-original="#48C1E1" class=""/>
	<path style="fill:#48C1E1;" d="M79.158,264.646h11.751c4.131,0,7.48-3.349,7.48-7.48s-3.349-7.48-7.48-7.48H79.158V264.646z" data-original="#48C1E1" class=""/>
	<path style="fill:#48C1E1;" d="M79.158,237.618h11.751c4.131,0,7.48-3.35,7.48-7.481s-3.349-7.48-7.48-7.48H79.158V237.618z" data-original="#48C1E1" class=""/>
	<path style="fill:#48C1E1;" d="M79.158,210.59h11.751c4.131,0,7.48-3.349,7.48-7.48c0-4.132-3.349-7.481-7.48-7.481H79.158V210.59z   " data-original="#48C1E1" class=""/>
</g><path style="fill:#A2DFF9;" d="M274.36,493.798H8.803c-4.131,0-7.48-3.35-7.48-7.481c0-4.131,3.349-7.48,7.48-7.48H274.36  c4.131,0,7.48,3.349,7.48,7.48C281.84,490.449,278.491,493.798,274.36,493.798z" data-original="#A2DFF9"/><g>
	<circle style="fill:#FFC502;" cx="83.43" cy="114.087" r="11.251" data-original="#FFC502"/>
	<circle style="fill:#FFC502;" cx="112.43" cy="67.077" r="16" data-original="#FFC502"/>
	<circle style="fill:#FFC502;" cx="76.43" cy="29.077" r="10.876" data-original="#FFC502"/>
</g></g> </svg>
